<mxfile host="app.diagrams.net" modified="2021-08-20T07:51:15.580Z" agent="5.0 (Macintosh; Intel Mac OS X 10_15_7) AppleWebKit/537.36 (KHTML, like Gecko) Chrome/92.0.4515.131 Safari/537.36" etag="h3Esl0xvWZFh5iO5pXwV" version="14.9.8" type="github">
  <diagram id="kmvxrhg1Oehf3PbseMsF" name="Page-1">
    <mxGraphModel dx="1426" dy="794" grid="1" gridSize="10" guides="1" tooltips="1" connect="1" arrows="1" fold="1" page="1" pageScale="1" pageWidth="1200" pageHeight="1600" math="0" shadow="0">
      <root>
        <mxCell id="0" />
        <mxCell id="1" parent="0" />
        <mxCell id="nex2NQOjRkhWRrdXeEYY-35" value="" style="group" vertex="1" connectable="0" parent="1">
          <mxGeometry x="320" y="170" width="640" height="580" as="geometry" />
        </mxCell>
        <mxCell id="nex2NQOjRkhWRrdXeEYY-1" value="" style="rounded=0;whiteSpace=wrap;html=1;sketch=0;" vertex="1" parent="nex2NQOjRkhWRrdXeEYY-35">
          <mxGeometry width="640" height="580" as="geometry" />
        </mxCell>
        <mxCell id="nex2NQOjRkhWRrdXeEYY-2" value="dnode" style="text;html=1;strokeColor=none;fillColor=none;align=center;verticalAlign=middle;whiteSpace=wrap;rounded=0;sketch=0;" vertex="1" parent="nex2NQOjRkhWRrdXeEYY-35">
          <mxGeometry width="40" height="20" as="geometry" />
        </mxCell>
        <mxCell id="nex2NQOjRkhWRrdXeEYY-112" value="" style="group" vertex="1" connectable="0" parent="nex2NQOjRkhWRrdXeEYY-35">
          <mxGeometry x="30" y="40" width="180" height="210" as="geometry" />
        </mxCell>
        <mxCell id="nex2NQOjRkhWRrdXeEYY-3" value="" style="rounded=0;whiteSpace=wrap;html=1;sketch=0;fillColor=#FFFFFF;dashed=1;" vertex="1" parent="nex2NQOjRkhWRrdXeEYY-112">
          <mxGeometry width="180" height="210" as="geometry" />
        </mxCell>
        <mxCell id="nex2NQOjRkhWRrdXeEYY-4" value="db: m1_code" style="text;html=1;strokeColor=none;fillColor=none;align=center;verticalAlign=middle;whiteSpace=wrap;rounded=0;sketch=0;" vertex="1" parent="nex2NQOjRkhWRrdXeEYY-112">
          <mxGeometry x="10" width="80" height="20" as="geometry" />
        </mxCell>
        <mxCell id="nex2NQOjRkhWRrdXeEYY-12" value="t_600002_xshg" style="rounded=0;whiteSpace=wrap;html=1;dashed=1;sketch=0;strokeColor=#666666;fillColor=#f5f5f5;dashPattern=1 4;fontColor=#333333;" vertex="1" parent="nex2NQOjRkhWRrdXeEYY-112">
          <mxGeometry x="50" y="80" width="120" height="20" as="geometry" />
        </mxCell>
        <mxCell id="nex2NQOjRkhWRrdXeEYY-13" value="t_600003_xshg" style="rounded=0;whiteSpace=wrap;html=1;dashed=1;sketch=0;strokeColor=#666666;fillColor=#f5f5f5;dashPattern=1 4;fontColor=#333333;" vertex="1" parent="nex2NQOjRkhWRrdXeEYY-112">
          <mxGeometry x="50" y="120" width="120" height="20" as="geometry" />
        </mxCell>
        <mxCell id="nex2NQOjRkhWRrdXeEYY-14" value="" style="endArrow=none;dashed=1;html=1;dashPattern=1 3;strokeWidth=2;" edge="1" parent="nex2NQOjRkhWRrdXeEYY-112">
          <mxGeometry x="320" y="170" width="50" height="50" as="geometry">
            <mxPoint x="98" y="190" as="sourcePoint" />
            <mxPoint x="98" y="150" as="targetPoint" />
          </mxGeometry>
        </mxCell>
        <mxCell id="nex2NQOjRkhWRrdXeEYY-15" value="t_600001_xshg" style="rounded=0;whiteSpace=wrap;html=1;dashed=1;sketch=0;strokeColor=#666666;fillColor=#f5f5f5;dashPattern=1 4;fontColor=#333333;" vertex="1" parent="nex2NQOjRkhWRrdXeEYY-112">
          <mxGeometry x="50" y="40" width="120" height="20" as="geometry" />
        </mxCell>
        <mxCell id="nex2NQOjRkhWRrdXeEYY-16" value="st_m1_code" style="rounded=0;whiteSpace=wrap;html=1;dashed=1;sketch=0;strokeColor=#666666;dashPattern=1 4;fontColor=#333333;horizontal=0;verticalAlign=middle;fillColor=#FF6666;" vertex="1" parent="nex2NQOjRkhWRrdXeEYY-112">
          <mxGeometry x="10" y="40" width="20" height="150" as="geometry" />
        </mxCell>
        <mxCell id="nex2NQOjRkhWRrdXeEYY-113" value="" style="group" vertex="1" connectable="0" parent="nex2NQOjRkhWRrdXeEYY-35">
          <mxGeometry x="230" y="40" width="180" height="210" as="geometry" />
        </mxCell>
        <mxCell id="nex2NQOjRkhWRrdXeEYY-20" value="" style="rounded=0;whiteSpace=wrap;html=1;sketch=0;fillColor=#FFFFFF;dashed=1;" vertex="1" parent="nex2NQOjRkhWRrdXeEYY-113">
          <mxGeometry width="180" height="210" as="geometry" />
        </mxCell>
        <mxCell id="nex2NQOjRkhWRrdXeEYY-21" value="db: d1_code" style="text;html=1;strokeColor=none;fillColor=none;align=center;verticalAlign=middle;whiteSpace=wrap;rounded=0;sketch=0;" vertex="1" parent="nex2NQOjRkhWRrdXeEYY-113">
          <mxGeometry x="10" width="80" height="20" as="geometry" />
        </mxCell>
        <mxCell id="nex2NQOjRkhWRrdXeEYY-22" value="t_600002_xshg" style="rounded=0;whiteSpace=wrap;html=1;dashed=1;sketch=0;strokeColor=#666666;fillColor=#f5f5f5;dashPattern=1 4;fontColor=#333333;" vertex="1" parent="nex2NQOjRkhWRrdXeEYY-113">
          <mxGeometry x="50" y="80" width="120" height="20" as="geometry" />
        </mxCell>
        <mxCell id="nex2NQOjRkhWRrdXeEYY-23" value="t_600003_xshg" style="rounded=0;whiteSpace=wrap;html=1;dashed=1;sketch=0;strokeColor=#666666;fillColor=#f5f5f5;dashPattern=1 4;fontColor=#333333;" vertex="1" parent="nex2NQOjRkhWRrdXeEYY-113">
          <mxGeometry x="50" y="120" width="120" height="20" as="geometry" />
        </mxCell>
        <mxCell id="nex2NQOjRkhWRrdXeEYY-24" value="" style="endArrow=none;dashed=1;html=1;dashPattern=1 3;strokeWidth=2;" edge="1" parent="nex2NQOjRkhWRrdXeEYY-113">
          <mxGeometry x="320" y="170" width="50" height="50" as="geometry">
            <mxPoint x="98" y="190" as="sourcePoint" />
            <mxPoint x="98" y="150" as="targetPoint" />
          </mxGeometry>
        </mxCell>
        <mxCell id="nex2NQOjRkhWRrdXeEYY-25" value="t_600001_xshg" style="rounded=0;whiteSpace=wrap;html=1;dashed=1;sketch=0;strokeColor=#666666;fillColor=#f5f5f5;dashPattern=1 4;fontColor=#333333;" vertex="1" parent="nex2NQOjRkhWRrdXeEYY-113">
          <mxGeometry x="50" y="40" width="120" height="20" as="geometry" />
        </mxCell>
        <mxCell id="nex2NQOjRkhWRrdXeEYY-26" value="st_d1_code" style="rounded=0;whiteSpace=wrap;html=1;dashed=1;sketch=0;strokeColor=#666666;dashPattern=1 4;fontColor=#333333;horizontal=0;verticalAlign=middle;fillColor=#FF6666;" vertex="1" parent="nex2NQOjRkhWRrdXeEYY-113">
          <mxGeometry x="10" y="40" width="20" height="150" as="geometry" />
        </mxCell>
        <mxCell id="nex2NQOjRkhWRrdXeEYY-114" value="" style="group" vertex="1" connectable="0" parent="nex2NQOjRkhWRrdXeEYY-35">
          <mxGeometry x="430" y="40" width="180" height="210" as="geometry" />
        </mxCell>
        <mxCell id="nex2NQOjRkhWRrdXeEYY-28" value="" style="rounded=0;whiteSpace=wrap;html=1;sketch=0;fillColor=#FFFFFF;dashed=1;" vertex="1" parent="nex2NQOjRkhWRrdXeEYY-114">
          <mxGeometry width="180" height="210" as="geometry" />
        </mxCell>
        <mxCell id="nex2NQOjRkhWRrdXeEYY-29" value="db: tick_code" style="text;html=1;strokeColor=none;fillColor=none;align=center;verticalAlign=middle;whiteSpace=wrap;rounded=0;sketch=0;" vertex="1" parent="nex2NQOjRkhWRrdXeEYY-114">
          <mxGeometry x="10" width="80" height="20" as="geometry" />
        </mxCell>
        <mxCell id="nex2NQOjRkhWRrdXeEYY-30" value="t_600002_xshg" style="rounded=0;whiteSpace=wrap;html=1;dashed=1;sketch=0;strokeColor=#666666;fillColor=#f5f5f5;dashPattern=1 4;fontColor=#333333;" vertex="1" parent="nex2NQOjRkhWRrdXeEYY-114">
          <mxGeometry x="50" y="80" width="120" height="20" as="geometry" />
        </mxCell>
        <mxCell id="nex2NQOjRkhWRrdXeEYY-31" value="t_600003_xshg" style="rounded=0;whiteSpace=wrap;html=1;dashed=1;sketch=0;strokeColor=#666666;fillColor=#f5f5f5;dashPattern=1 4;fontColor=#333333;" vertex="1" parent="nex2NQOjRkhWRrdXeEYY-114">
          <mxGeometry x="50" y="120" width="120" height="20" as="geometry" />
        </mxCell>
        <mxCell id="nex2NQOjRkhWRrdXeEYY-32" value="" style="endArrow=none;dashed=1;html=1;dashPattern=1 3;strokeWidth=2;" edge="1" parent="nex2NQOjRkhWRrdXeEYY-114">
          <mxGeometry x="320" y="170" width="50" height="50" as="geometry">
            <mxPoint x="98" y="190" as="sourcePoint" />
            <mxPoint x="98" y="150" as="targetPoint" />
          </mxGeometry>
        </mxCell>
        <mxCell id="nex2NQOjRkhWRrdXeEYY-33" value="t_600001_xshg" style="rounded=0;whiteSpace=wrap;html=1;dashed=1;sketch=0;strokeColor=#666666;fillColor=#f5f5f5;dashPattern=1 4;fontColor=#333333;" vertex="1" parent="nex2NQOjRkhWRrdXeEYY-114">
          <mxGeometry x="50" y="40" width="120" height="20" as="geometry" />
        </mxCell>
        <mxCell id="nex2NQOjRkhWRrdXeEYY-34" value="st_tick_code" style="rounded=0;whiteSpace=wrap;html=1;dashed=1;sketch=0;strokeColor=#666666;dashPattern=1 4;fontColor=#333333;horizontal=0;verticalAlign=middle;fillColor=#FF6666;" vertex="1" parent="nex2NQOjRkhWRrdXeEYY-114">
          <mxGeometry x="10" y="40" width="20" height="150" as="geometry" />
        </mxCell>
        <mxCell id="nex2NQOjRkhWRrdXeEYY-88" value="" style="group" vertex="1" connectable="0" parent="1">
          <mxGeometry x="350" y="500" width="180" height="210" as="geometry" />
        </mxCell>
        <mxCell id="nex2NQOjRkhWRrdXeEYY-89" value="" style="rounded=0;whiteSpace=wrap;html=1;sketch=0;fillColor=#FFFFFF;dashed=1;" vertex="1" parent="nex2NQOjRkhWRrdXeEYY-88">
          <mxGeometry width="180" height="210" as="geometry" />
        </mxCell>
        <mxCell id="nex2NQOjRkhWRrdXeEYY-90" value="db: m1_day" style="text;html=1;strokeColor=none;fillColor=none;align=center;verticalAlign=middle;whiteSpace=wrap;rounded=0;sketch=0;" vertex="1" parent="nex2NQOjRkhWRrdXeEYY-88">
          <mxGeometry x="10" width="70" height="20" as="geometry" />
        </mxCell>
        <mxCell id="nex2NQOjRkhWRrdXeEYY-91" value="t_600002_xshg" style="rounded=0;whiteSpace=wrap;html=1;dashed=1;sketch=0;strokeColor=#666666;fillColor=#f5f5f5;dashPattern=1 4;fontColor=#333333;" vertex="1" parent="nex2NQOjRkhWRrdXeEYY-88">
          <mxGeometry x="50" y="80" width="120" height="20" as="geometry" />
        </mxCell>
        <mxCell id="nex2NQOjRkhWRrdXeEYY-92" value="t_600003_xshg" style="rounded=0;whiteSpace=wrap;html=1;dashed=1;sketch=0;strokeColor=#666666;fillColor=#f5f5f5;dashPattern=1 4;fontColor=#333333;" vertex="1" parent="nex2NQOjRkhWRrdXeEYY-88">
          <mxGeometry x="50" y="120" width="120" height="20" as="geometry" />
        </mxCell>
        <mxCell id="nex2NQOjRkhWRrdXeEYY-93" value="" style="endArrow=none;dashed=1;html=1;dashPattern=1 3;strokeWidth=2;" edge="1" parent="nex2NQOjRkhWRrdXeEYY-88">
          <mxGeometry width="50" height="50" relative="1" as="geometry">
            <mxPoint x="98" y="190" as="sourcePoint" />
            <mxPoint x="98" y="150" as="targetPoint" />
          </mxGeometry>
        </mxCell>
        <mxCell id="nex2NQOjRkhWRrdXeEYY-94" value="t_20050101" style="rounded=0;whiteSpace=wrap;html=1;dashed=1;sketch=0;strokeColor=#666666;fillColor=#f5f5f5;dashPattern=1 4;fontColor=#333333;" vertex="1" parent="nex2NQOjRkhWRrdXeEYY-88">
          <mxGeometry x="50" y="40" width="120" height="20" as="geometry" />
        </mxCell>
        <mxCell id="nex2NQOjRkhWRrdXeEYY-95" value="st_m1_day" style="rounded=0;whiteSpace=wrap;html=1;dashed=1;sketch=0;strokeColor=#666666;dashPattern=1 4;fontColor=#333333;horizontal=0;verticalAlign=middle;fillColor=#FF6666;" vertex="1" parent="nex2NQOjRkhWRrdXeEYY-88">
          <mxGeometry x="10" y="40" width="20" height="150" as="geometry" />
        </mxCell>
        <mxCell id="nex2NQOjRkhWRrdXeEYY-96" value="" style="group" vertex="1" connectable="0" parent="1">
          <mxGeometry x="550" y="500" width="180" height="210" as="geometry" />
        </mxCell>
        <mxCell id="nex2NQOjRkhWRrdXeEYY-97" value="" style="rounded=0;whiteSpace=wrap;html=1;sketch=0;fillColor=#FFFFFF;dashed=1;" vertex="1" parent="nex2NQOjRkhWRrdXeEYY-96">
          <mxGeometry width="180" height="210" as="geometry" />
        </mxCell>
        <mxCell id="nex2NQOjRkhWRrdXeEYY-98" value="db: d1_year" style="text;html=1;strokeColor=none;fillColor=none;align=center;verticalAlign=middle;whiteSpace=wrap;rounded=0;sketch=0;" vertex="1" parent="nex2NQOjRkhWRrdXeEYY-96">
          <mxGeometry x="10" width="70" height="20" as="geometry" />
        </mxCell>
        <mxCell id="nex2NQOjRkhWRrdXeEYY-99" value="t_600002_xshg" style="rounded=0;whiteSpace=wrap;html=1;dashed=1;sketch=0;strokeColor=#666666;fillColor=#f5f5f5;dashPattern=1 4;fontColor=#333333;" vertex="1" parent="nex2NQOjRkhWRrdXeEYY-96">
          <mxGeometry x="50" y="80" width="120" height="20" as="geometry" />
        </mxCell>
        <mxCell id="nex2NQOjRkhWRrdXeEYY-100" value="t_600003_xshg" style="rounded=0;whiteSpace=wrap;html=1;dashed=1;sketch=0;strokeColor=#666666;fillColor=#f5f5f5;dashPattern=1 4;fontColor=#333333;" vertex="1" parent="nex2NQOjRkhWRrdXeEYY-96">
          <mxGeometry x="50" y="120" width="120" height="20" as="geometry" />
        </mxCell>
        <mxCell id="nex2NQOjRkhWRrdXeEYY-101" value="" style="endArrow=none;dashed=1;html=1;dashPattern=1 3;strokeWidth=2;" edge="1" parent="nex2NQOjRkhWRrdXeEYY-96">
          <mxGeometry width="50" height="50" relative="1" as="geometry">
            <mxPoint x="98" y="190" as="sourcePoint" />
            <mxPoint x="98" y="150" as="targetPoint" />
          </mxGeometry>
        </mxCell>
        <mxCell id="nex2NQOjRkhWRrdXeEYY-102" value="t_600001_xshg" style="rounded=0;whiteSpace=wrap;html=1;dashed=1;sketch=0;strokeColor=#666666;fillColor=#f5f5f5;dashPattern=1 4;fontColor=#333333;" vertex="1" parent="nex2NQOjRkhWRrdXeEYY-96">
          <mxGeometry x="50" y="40" width="120" height="20" as="geometry" />
        </mxCell>
        <mxCell id="nex2NQOjRkhWRrdXeEYY-103" value="st_d1_year" style="rounded=0;whiteSpace=wrap;html=1;dashed=1;sketch=0;strokeColor=#666666;dashPattern=1 4;fontColor=#333333;horizontal=0;verticalAlign=middle;fillColor=#FF6666;" vertex="1" parent="nex2NQOjRkhWRrdXeEYY-96">
          <mxGeometry x="10" y="40" width="20" height="150" as="geometry" />
        </mxCell>
      </root>
    </mxGraphModel>
  </diagram>
</mxfile>
